{"title":"The.Veteran.2011.DVDRip.XVID.AC3.HQ.Hive-CM8","uid":6555625,"size":1605688052,"categoryP":"video","categoryS":"movies","magnet":"?xt=urn:btih:6db32855c831d249a947e40483096ea536dab083&amp;dn=The.Veteran.2011.DVDRip.XVID.AC3.HQ.Hive-CM8&amp;tr=udp%3A%2F%2Ftracker.openbittorrent.com%3A80&amp;tr=udp%3A%2F%2Fopen.demonii.com%3A1337&amp;tr=udp%3A%2F%2Ftracker.coppersurfer.tk%3A6969&amp;tr=udp%3A%2F%2Fexodus.desync.com%3A6969","seeders":0,"leechers":1,"uploader":"TvTeam","files":5,"time":1311282015,"description":". \n  &lt;a href=&quot;\nhttp://www.torrenting.com/&quot; rel=&quot;nofollow&quot; target=&quot;_NEW&quot;&gt;\nhttp://www.torrenting.com/&lt;/a&gt;        :     Greatest Movie Tracker on The Net!!!\n &lt;a href=&quot;\nhttp://www.Torrenting.com&quot; rel=&quot;nofollow&quot; target=&quot;_NEW&quot;&gt;\nhttp://www.Torrenting.com&lt;/a&gt;          :     Once &amp; For all ;)\n\n\n               www . Torrenting . Com \n\n(((((((((((((= Enjoy No RAR releases =))))))))))))))))))))\n\n\n...................................NFO:....................................\n\n.[img]http://img135.imageshack.us/img135/7292/theveteran2011.jpg[/img]\n\n\n[color=blue][size=5][b]The.Veteran.2011.DVDRip.XVID.AC3.HQ.Hive-CM8[/b][/size][/color]\n\n\n[b]Thx Hive\n\nCM8 Doing It Right The First Time :D\n\n\nSource: R2 DVDR\n\n\nEncode:\nfirst with a nice quality rip :D\ndid the usual - brightness, sharpness, rgb, denoise\nenjoy!\n\nVideo: 720x400 @bitrate 1800 2pass\nAudio: English AC3 5.1 @448\nSample: yes included[/b]\n\n\n[url]http://www.imdb.com/title/tt1653700/[/url]\n\n\nGeneral\nComplete name                    : The.Veteran.2011.DVDRip.XVID.AC3.HQ.Hive-CM8.avi\nFormat                           : AVI\nFormat/Info                      : Audio Video Interleave\nFile size                        : 1.49 GiB\nDuration                         : 1h 34mn\nOverall bit rate                 : 2 257 Kbps\nWriting application              : Nandub v1.0rc2\nWriting library                  : Nandub build 1853/release\n\nVideo\nID                               : 0\nFormat                           : MPEG-4 Visual\nFormat profile                   : Advanced Simple@L5\nFormat settings, BVOP            : 2\nFormat settings, QPel            : Yes\nFormat settings, GMC             : No warppoints\nFormat settings, Matrix          : Default (H.263)\nMuxing mode                      : Packed bitstream\nCodec ID                         : XVID\nCodec ID/Hint                    : XviD\nDuration                         : 1h 34mn\nBit rate                         : 1 799 Kbps\nWidth                            : 720 pixels\nHeight                           : 400 pixels\nDisplay aspect ratio             : 16:9\nFrame rate                       : 25.000 fps\nColor space                      : YUV\nChroma subsampling               : 4:2:0\nBit depth                        : 8 bits\nScan type                        : Progressive\nCompression mode                 : Lossy\nBits/(Pixel*Frame)               : 0.250\nStream size                      : 1.18 GiB (80%)\nWriting library                  : XviD 1.2.1 (UTC 2008-12-04)\n\nAudio\nID                               : 1\nFormat                           : AC-3\nFormat/Info                      : Audio Coding 3\nMode extension                   : CM (complete main)\nCodec ID                         : 2000\nDuration                         : 1h 34mn\nBit rate mode                    : Constant\nBit rate                         : 448 Kbps\nChannel(s)                       : 6 channels\nChannel positions                : Front: L C R, Side: L R, LFE\nSampling rate                    : 48.0 KHz\nBit depth                        : 16 bits\nCompression mode                 : Lossy\nStream size                      : 302 MiB (20%)\nAlignment                        : Split accross interleaves\nInterleave, duration             : 40 ms (1.00 video frame)\nInterleave, preload duration     : 500 ms\n\n\nPlot:\nA soldier returning from the war in Afghanistan uncovers a conspiracy\ninvolving the intelligence services and a gang of drug dealers.\n\n\nCast:\nToby Kebbell   ...    Miller\nBrian Cox      ...    Gerry\nTony Curran    ...    Chris Turner\nAdi Bielski    ...    Alayna Wallace\nTom Brooke     ...    Danny Turner\n\n\n[img]http://img546.imageshack.us/img546/9702/94458418.png[/img]\n[img]http://img402.imageshack.us/img402/4707/veveveve.png[/img]\n[img]http://img263.imageshack.us/img263/7243/veve.png[/img]\n[img]http://img830.imageshack.us/img830/9769/veveve.png[/img]\n[img]http://img36.imageshack.us/img36/7867/veveveveve.png[/img]\n[img]http://img849.imageshack.us/img849/7648/veveveveveve.png[/img]\n[img]http://img814.imageshack.us/img814/6686/veveveveveveve.png[/img]\n\n\n\nGreetz\n\nViSiON,SANTi,MAGNET,THC,T0XiC,LKRG,IMAGiNE,WBZ,FLAWL3SS,NOVA\nD2U,Vik,Rapeseed,SAFC,goldadvance,MEMORY100,KaN1vE,Unevano,\nPinnz,Wayne,Mr Hive and all P2P groups \nGreat Work Guys :D\n\nFYS\n\n&lt;a class=&quot;__cf_email__&quot; href=&quot;/cdn-cgi/l/email-protection&quot; data-cfemail=&quot;d1929ce991b9a4a2b9bcb0b8bdffb2bebc&quot;&gt;[email&amp;#160;protected]&lt;/a&gt;&lt;script cf-hash='f9e31' type=&quot;text/javascript&quot;&gt;\n/* &lt;![CDATA[ */!function(){try{var t=&quot;currentScript&quot;in document?document.currentScript:function(){for(var t=document.getElementsByTagName(&quot;script&quot;),e=t.length;e--;)if(t[e].getAttribute(&quot;cf-hash&quot;))return t[e]}();if(t&amp;&amp;t.previousSibling){var e,r,n,i,c=t.previousSibling,a=c.getAttribute(&quot;data-cfemail&quot;);if(a){for(e=&quot;&quot;,r=parseInt(a.substr(0,2),16),n=2;a.length-n;n+=2)i=parseInt(a.substr(n,2),16)^r,e+=String.fromCharCode(i);e=document.createTextNode(e),c.parentNode.replaceChild(e,c)}}}catch(u){}}();/* ]]&gt; */&lt;/script&gt;","torrent":{"xt":"urn:btih:6db32855c831d249a947e40483096ea536dab083","amp;dn":"The.Veteran.2011.DVDRip.XVID.AC3.HQ.Hive-CM8","amp;tr":["udp%3A%2F%2Ftracker.openbittorrent.com%3A80","udp%3A%2F%2Fopen.demonii.com%3A1337","udp%3A%2F%2Ftracker.coppersurfer.tk%3A6969","udp%3A%2F%2Fexodus.desync.com%3A6969"],"infoHash":"6db32855c831d249a947e40483096ea536dab083","infoHashBuffer":{"type":"Buffer","data":[109,179,40,85,200,49,210,73,169,71,228,4,131,9,110,165,54,218,176,131]},"announce":[],"urlList":[]}}